# xmcd CD database file
#
# Track frame offsets:
#	150
#	29124
#	44776
#	75866
#	88226
#	106580
#	124788
#	153464
#
# Disc length: 2369 seconds
#
# Revision: 0
# Processed by: cddbd v1.5.2PL0 Copyright (c) Steve Scherf et al.
# Submitted via: CDex 1.51
#
DISCID=60093f08
DTITLE=Bror Gunnar Jansson - Bror Gunnar Jansson
DYEAR=2015
DGENRE=Blues
TTITLE0=Dead Cold Hands
TTITLE1=Mary Lee
TTITLE2=Pretty Polly
TTITLE3=My Gal Drinks So Much Whiskey That She Staggers In Her Sleep
TTITLE4=Heartaches And Troubles
TTITLE5=William Joseph Dean
TTITLE6=Long Gone
TTITLE7=The Wandering Spirit Of B.F. Shelton
EXTD=YEAR: 2015
EXTT0=
EXTT1=
EXTT2=
EXTT3=
EXTT4=
EXTT5=
EXTT6=
EXTT7=
PLAYORDER=
